<?xml version="1.0" encoding="utf-8"?>
<!-- Generator: Adobe Illustrator 18.1.0, SVG Export Plug-In . SVG Version: 6.00 Build 0)  -->
<svg version="1.1" id="Layer_1" xmlns="http://www.w3.org/2000/svg" xmlns:xlink="http://www.w3.org/1999/xlink" x="0px" y="0px"
	 viewBox="0 0 500 500" enable-background="new 0 0 500 500" xml:space="preserve">
<g>
	<path fill="#010101" d="M365.3,392.6c52.2-126.6,27-129.9,27-129.9C365.6,248.6,365.3,392.6,365.3,392.6z"/>
	<path fill="#010101" d="M268.9,388.7c-13.3,10.2,19.3,5.9,25.2,1.4c45.5-35,57.6-115.9-6.1-138.1c-50.3-17.6-116.2,25.2-104.6,80.2
		c1.6,7.5,34.4-0.5,32.7-8.7c-4.2-19.8-0.1-37.1,14-51.7c18.6-19,46.9-3.3,59.8,14.3C312.3,316.5,296.7,367.5,268.9,388.7z"/>
	<path fill="#010101" d="M494.9,250.6c-50.6-15.1-92.8-51.6-133.6-83.8c-37.6-29.6-76.7-83.2-84.3-131.2c-0.1-1-0.6-1.8-1.4-2.6
		c3.7-17.1-43.7-12.7-53.3,2.3c-54.2,85.1-107,181.2-205.8,220.4c-7.6,3.1-22.5,14.1-14,23.6c8.6,9.7,26.3,5.5,36.4,1.6
		c15.6-6.3,30.2-13.6,44.1-21.9c-2.9,56,11.7,116.4,44.1,157.9c22.6,29,65,39.7,97.1,48c42.4,11.1,86.9,13.5,130.4,13
		c13-0.1,27.3-4.1,38.6-11.5c8.6-5.8,7.5-12.5-2.9-12.4c-65.2,0.7-167.5-0.9-219.6-51.7c-38-37-53.7-114.5-47.8-171.4
		c45.7-37.6,81.5-86,114.5-136.5c17.4,35.5,46.2,68.7,73,91.9c40.5,35,88.6,71.8,140.4,87.2c12,3.6,27.4-0.7,38.2-6.4
		C494.1,264.5,507.2,254.3,494.9,250.6z"/>
</g>
</svg>
